<svg id="Layer_2" data-name="Layer 2" xmlns="http://www.w3.org/2000/svg" viewBox="0 0 1000 1000.806"><defs><style>.cls-1{fill:#fc3d21;}.cls-2{fill:#15202b;}.cls-3{fill:#fff;}</style></defs><path class="cls-1" d="M60,.807H900a100,100,0,0,1,100,100v840a60,60,0,0,1-60,60H100a100,100,0,0,1-100-100v-840a60,60,0,0,1,60-60Z"/><path class="cls-2" d="M1000.355,940V100a100,100,0,0,0-100-100h-840L60.01.807H60a60,60,0,0,0-35.728,108.2L890.663,974.937A59.994,59.994,0,0,0,1000,940.806c0-.221-.014-.44-.016-.661Z"/><path class="cls-3" d="M855.968,195a52.459,52.459,0,0,0-52.459-52.458H362.855l-.181.423h0a31.475,31.475,0,0,0-18.742,56.761l454.5,454.256a31.472,31.472,0,0,0,57.357-17.9c0-.116-.008-.231-.009-.347l.195-.076Z"/></svg>